<?xml version="1.0" encoding="UTF-8"?>
<!-- Created with Inkscape (http://www.inkscape.org/) -->
<svg width="1200" height="400" version="1.1" viewBox="0 0 317.5 105.83" xml:space="preserve" xmlns="http://www.w3.org/2000/svg" xmlns:xlink="http://www.w3.org/1999/xlink"><defs><pattern id="pattern9" y="350" width="882.98364258" height="565.76356201" patternTransform="matrix(.10071 .017757 -.017757 .10071 -249.72 56.929)" preserveAspectRatio="xMidYMid" xlink:href="#pattern5"/><pattern id="pattern5" width="735.81972" height="471.46964" patternTransform="translate(-824.13 -44.866)" patternUnits="userSpaceOnUse" preserveAspectRatio="xMidYMid"><path d="m215.28 471.1c-7.5143-1.3038-11.306-6.3575-10.871-14.49 0.30615-5.7264 0.97883-7.8005 4.1297-12.734 1.6302-2.5527 3.9166-7.6215 5.0808-11.264 6.262-19.593 19.572-43.13 33.168-58.65 9.3472-10.671 21.887-21.889 30.204-27.022 1.4086-0.86923 2.5136-1.756 2.4557-1.9707-0.0578-0.21471-19.409-4.448-43.003-9.4073-61.882-13.008-69.654-15.206-76.121-21.536l-2.4287-2.3771-8.556 2.7472c-4.7059 1.511-11.728 4.1886-15.604 5.9504-25.638 11.652-49.317 35.617-63.363 64.127-2.8388 5.762-3.3101 7.3944-3.3205 11.5-0.01134 4.2404-0.37342 5.4102-3.1905 10.29-2.4279 4.2055-3.826 5.8665-5.9201 7.0336-4.5005 2.5081-8.9364 2.2492-13.486-0.78694-4.3008-2.8701-6.4832-9.4575-4.6646-14.08 0.48008-1.2202 0.78728-2.5381 0.68266-2.9286-0.44322-1.6542 1.3626-4.9527 5.0082-9.1482 2.1424-2.4655 4.5659-6.1914 5.3855-8.2797 1.896-4.8306 11.827-21.616 16.895-28.556 10.254-14.041 25.411-28.548 39.441-37.749l7.784-5.1049-0.67382-2.5147-0.67385-2.5148-19.429-3.9937-5.2967 2.8312c-2.9132 1.557-5.8947 2.9914-6.6258 3.1872-1.539 0.41236-17.073-3.5302-18.714-4.7499-0.60714-0.45108-1.5656-2.5432-2.13-4.6492l-1.026-3.8291-10.296-2.1278c-12.933-2.6727-30.931-7.5544-33.974-9.2149-10.049-5.4837-16.691-18.972-15.91-32.311 0.30425-5.1998 2.5327-15.291 3.6349-16.461 0.24265-0.25754 3.1111 0.23138 6.3746 1.0864l5.9337 1.5546 2.9655-4.7079c3.5092-5.5715 7.3122-9.5011 12.547-12.965 3.0936-2.0471 4.9469-2.7724 9.7532-3.8171 5.4321-1.1807 6.4842-1.1715 12.442 0.10885 7.5678 1.6264 13.417 4.3766 17.065 8.0238 1.4222 1.4218 3.7234 3.4325 5.1138 4.4682 2.495 1.8584 2.6232 1.8685 9.7898 0.77235 3.9939-0.61095 8.3856-1.234 9.7594-1.3847l2.4976-0.2739-4.9296-17.004-4.9299-17.004 1.6393-6.1283c0.90168-3.3705 2.0353-6.7414 2.5193-7.4908 0.80753-1.2504 17.353-9.9768 122.68-64.705l23.1-12.003 0.40369-3.8704c0.91321-8.7548 5.1644-17.101 11.38-22.342 2.4082-2.0307 11.681-7.1925 30.468-16.96 14.854-7.7227 28.511-14.623 30.35-15.334 7.5574-2.9216 18.172-1.9445 25.792 2.3744l4.5938 2.6035 41.736-21.696c39.106-20.328 41.969-21.714 45.426-21.988 2.0294-0.16067 5.1555 0.066595 6.9468 0.50509 2.6673 0.65287 4.2121 0.53856 8.5329-0.63131 6.5793-1.7825 9.947-1.7799 17.237 0.00831 6.8199 1.673 12.212 4.586 16.373 8.846 4.7275 4.8391 4.1478 4.8602 14.571-0.52913l9.1492-4.7305 4.1342 0.98493c2.2738 0.54176 6.4384 1.6458 9.2546 2.4535l5.1205 1.4685 2.413 8.2695c2.7889 9.557 2.9813 9.7582 9.9146 10.353l4.1283 0.3543 9.4496-4.8685 9.4497-4.8685 18.093 4.709 1.1788 2.789c0.64816 1.534 1.7451 4.9005 2.437 7.4812l1.2574 4.6925 5.1137-1.3702c7.2741-1.9491 17.142-0.52958 24.703 3.5535 1.742 0.94076 12.691 9.1344 24.33 18.208l21.163 16.498 31.082 14.552c25.453 11.916 31.262 14.384 32.073 13.622 1.9607-1.8383 5.3485-2.0831 10.329-0.7463 10.834 2.9082 11.709 9.2762 2.8324 20.605-2.6128 3.3347-3.1129 4.471-2.9024 6.5947 0.51782 5.2241-4.1626 11.064-8.512 10.621-2.4382-0.24835-14.007 5.4015-22.822 11.146-26.151 17.041-46.335 44.035-57.861 77.381-1.611 4.6612-1.8086 6.2293-1.2458 9.8828 0.84095 5.4574 0.52699 6.8891-2.8909 13.198-4.027 7.4335-8.576 9.6628-15.301 7.498-5.9002-1.8993-9.6721-8.1916-8.5762-14.307 0.25618-1.4302 0.42869-3.4973 0.38313-4.5933-0.0514-1.2347 1.3335-4.2906 3.6403-8.0326 2.0477-3.322 3.9934-7.3082 4.3237-8.8583 1.1255-5.2821 8.2766-21.853 13.615-31.548 12.505-22.714 31.761-44.381 49.425-55.613 1.9113-1.2154 3.4148-2.4344 3.3413-2.7089-0.0735-0.27447-19.906-4.6512-44.073-9.7259-45.385-9.5304-64.206-14.084-69.002-16.696-1.5271-0.83149-4.0247-2.7733-5.5502-4.315l-2.7738-2.8032-8.3105 2.7418c-4.5708 1.508-9.454 3.2259-10.852 3.8177l-2.541 1.0759 3.5323 12.324 3.5326 12.324-1.3552 5.644c-2.4833 10.342 1.4069 7.5068-39.203 28.572l-35.803 18.571 0.13342 2.0717c0.20012 3.1039-5.9325 13.213-8.8707 14.622-5.4286 2.6039-12.208 1.8337-15.137-1.7197-0.62989-0.76375-1.6544-1.2522-2.2772-1.0853-0.62313 0.16698-13.67 6.82-28.993 14.785-15.323 7.9645-55.244 28.697-88.713 46.073-33.469 17.375-61.352 31.971-61.963 32.435-0.91528 0.69523 2.8821 2.7162 21.66 11.528 19.657 9.2243 22.918 10.545 23.86 9.662 1.847-1.7318 4.4406-2.0122 8.8822-0.96012 7.1436 1.692 8.6121 2.7339 9.729 6.9023 0.97176 3.6265 0.051 6.2683-4.3364 12.442-3.135 4.4116-4.028 6.2663-4.0936 8.5013-0.17083 5.826-4.1486 10.613-8.5492 10.288-1.4916-0.1101-3.907 0.80322-9.4542 3.574-32.556 16.262-57.784 46.121-70.625 83.591-1.9655 5.7356-2.2457 7.4659-1.7457 10.783 0.72695 4.8232 0.29442 7.1596-2.3694 12.799-3.2778 6.939-7.7496 9.8051-13.69 8.7744zm9.7761-17.63c-0.0971-0.36283-0.42485-0.39681-0.72748-0.0752-0.30274 0.32126-0.47112 0.88172-0.37379 1.2446 0.0971 0.36284 0.42481 0.39682 0.72748 0.0752 0.30274-0.32126 0.47112-0.88165 0.37379-1.2446zm-12.151-3.1102c-0.0971-0.36284-0.42448-0.39693-0.72748-0.0752-0.30274 0.32126-0.47104 0.88169-0.3738 1.2446 0.0971 0.36283 0.42448 0.39696 0.72741 0.0752 0.30274-0.32126 0.47112-0.88165 0.3738-1.2446zm416.97-207.22c-0.0972-0.36295-0.42482-0.39677-0.72759-0.0752-0.3024 0.32145-0.47119 0.88168-0.37394 1.2447 0.0973 0.36298 0.42483 0.39681 0.72759 0.0752 0.30278-0.32152 0.47118-0.88175 0.37395-1.2447zm-325.61 80.527c1.4369-1.7924 2.464-3.4638 2.2824-3.7142-0.52324-0.72174-35.047-16.715-35.265-16.337-0.21278 0.36907 1.8774 2.054 18.58 14.975 6.0696 4.6954 11.205 8.4916 11.413 8.436 0.20749-0.0556 1.5528-1.5675 2.9898-3.3599zm313.46-83.637c-0.0972-0.36294-0.42483-0.39682-0.72759-0.0752-0.30244 0.32145-0.4712 0.88167-0.37394 1.2446 0.0973 0.36298 0.42483 0.39681 0.72759 0.0752 0.30278-0.32152 0.47118-0.88174 0.37395-1.2446zm91.34-126.66c1.4241-1.7763 2.527-3.4619 2.4509-3.7457-0.17601-0.65691-35.023-17.004-35.284-16.552-0.21018 0.3634 29.441 23.743 29.942 23.608 0.16648-0.0446 1.4674-1.5343 2.8914-3.3106z" fill="#800000" stroke="#000" stroke-linecap="round" stroke-linejoin="round" stroke-width=".34161" style="paint-order:markers stroke fill"/></pattern></defs><g transform="translate(-171.63 -124.35)"><rect x="171.64" y="124.36" width="317.5" height="105.83" fill="#50000f" stroke="#acf" stroke-linecap="round" stroke-linejoin="round" stroke-width=".016212" style="paint-order:markers stroke fill"/><rect x="171.66" y="124.39" width="317.5" height="105.83" fill="url(#pattern9)" stroke="#000" stroke-linecap="round" stroke-linejoin="round" stroke-width=".067641" style="paint-order:markers stroke fill"/><g transform="matrix(1.3471 0 0 1.3471 181.32 138.41)"><path d="m11.283 2.498c-2.4117-0.043741-4.3206 0.19684-4.9661 0.84233-0.36545 0.36545 0.17369 1.1719 1.2072 1.9513 3.2717 2.4674 11.229 5.5842 12.419 6.2508 0.51347 0.28766 1.1031 0.60912 1.7394 0.92966l-0.57464-1.6821-0.09405-1.0883 1.1188-3.9393 2.0448-0.32349 2.281 3.4003 0.24701 1.0645-0.03669 2.4608 3.945 0.62477 0.72554-2.3518 0.31988-0.53072c-0.54406-2.4107-4.0475-4.376-7.6481-5.5759-3.2919-1.097-8.7083-1.96-12.728-2.033zm34.446 1.987c-2.5485-0.02116-6.2319 1.6564-7.4378 2.9042-0.76232 0.789-1.0006 1.9721-1.3932 2.713-0.0014 0.0024-0.0028 0.0048-0.0041 0.0072-2.94e-4 7e-4 -7.05e-4 0.0014-1e-3 0.0021v5.16e-4l-0.07803 2.0919-0.42633 1.0067-1.4759 1.9694 2.8241 2.8241 1.9694-1.4759 1.0067-0.42633 2.0919-0.07803h5.17e-4c6.75e-4 -3.61e-4 0.0014-7.72e-4 0.0021-1e-3 0.0025-0.0013 0.0048-0.0028 0.0072-0.0041 0.74087-0.39258 1.924-0.63087 2.713-1.3932 1.624-1.5692 4.0919-7.6206 2.2381-9.4744-0.46344-0.46344-1.1871-0.65906-2.0366-0.66611zm-2.9192 16.773-0.53072 0.31988-2.3518 0.72554 0.62477 3.945 2.4608-0.03669 1.0645 0.24701 3.4003 2.281-0.32349 2.0448-3.9393 1.1188-1.0883-0.09405-1.6821-0.57464c0.32054 0.63632 0.642 1.226 0.92966 1.7394 0.66655 1.1898 3.7834 9.1471 6.2508 12.419 0.77938 1.0335 1.5859 1.5726 1.9513 1.2072 0.64548-0.64548 0.88607-2.5544 0.84233-4.9661-0.0729-4.0196-0.93593-9.436-2.033-12.728-1.1999-3.6006-3.1652-7.1041-5.5759-7.6481zm-35.196 4.3791s-10.239 1.5555-9.8883 6.3262c0.2802 3.8108 5.8873 5.1144 9.8966 4.0426l-0.44958-0.88212 2.529-3.2205 0.93586-0.56379 2.3518-0.72554-0.62477-3.945-2.4608 0.03669-1.0645-0.24701-1.2247-0.82166zm14.689 14.291-0.72554 2.3518-0.56379 0.93586-3.2205 2.529-0.88212-0.44958c-1.0717 4.0092 0.23184 9.6163 4.0426 9.8966 4.7708 0.35079 6.3262-9.8883 6.3262-9.8883v-5.17e-4l-0.82166-1.2247-0.24701-1.0645 0.03669-2.4608z" fill="#fff"/><path d="m37.984 34.572 2.0125 1.4169 0.71607 0.82527 1.4101 3.8442-1.4638 1.4638-3.8442-1.4101-0.82527-0.71607-1.4169-2.0125-3.5591 1.8135 0.79538 2.3292 0.09425 1.0885-1.1188 3.9389-2.0447 0.32385-2.2812-3.4004-0.24676-1.0644 0.03669-2.461-3.9453-0.62489-0.7256 2.3519-0.56362 0.93604-3.2203 2.5291-1.8445-0.93983 0.1532-4.0918 0.42601-1.0062 1.4762-1.9694-2.8246-2.8246-1.9694 1.4762-1.0062 0.42601-4.0918 0.1532-0.93983-1.8445 2.5291-3.2203 0.93604-0.56361 2.3519-0.7256-0.62489-3.9453-2.461 0.036686-1.0644-0.24676-3.4004-2.2812 0.32385-2.0447 3.9389-1.1188 1.0885 0.09425 2.3292 0.79538 1.8135-3.5591-2.0125-1.4169-0.71607-0.82527-1.4101-3.8442 1.4638-1.4638 3.8442 1.4101 0.82527 0.71607 1.4169 2.0125 3.5591-1.8135-0.79538-2.3292-0.09425-1.0885 1.1188-3.9389 2.0447-0.32385 2.2812 3.4004 0.24676 1.0644-0.03669 2.461 3.9453 0.62489 0.7256-2.3519 0.56361-0.93604 3.2203-2.5291 1.8445 0.93983-0.1532 4.0918-0.42601 1.0062-1.4762 1.9694 2.8246 2.8246 1.9694-1.4762 1.0062-0.42601 4.0918-0.1532 0.93983 1.8445-2.5291 3.2203-0.93604 0.56361-2.3519 0.7256 0.62489 3.9453 2.461-0.03669 1.0644 0.24676 3.4004 2.2812-0.32385 2.0447-3.9389 1.1188-1.0885-0.09425-2.3292-0.79538z" fill="#ff0" stroke="#000" stroke-width=".52917"/><circle transform="rotate(45)" cx="37.418" r="5.5352" fill="#fff"/></g><g transform="matrix(.53672 0 0 .53672 85.155 86.435)" fill="#fff"><path d="m320.65 159.55v-2.2225h1.2171q1.7463 0 3.0163-0.58208 1.3229-0.635 1.3229-2.9633v-29.369h-5.08q-2.3283 0-3.2279 1.3229-0.89958 1.27-1.1112 3.0163l-0.26458 2.2754h-2.7517l0.26458-9.2604h29.792l0.26459 9.2604h-2.7517l-0.26458-2.2754q-0.21167-1.7462-1.1112-3.0163-0.89959-1.3229-3.2808-1.3229h-5.1329v29.104q0 2.4871 1.27 3.175 1.27 0.635 3.0692 0.635h1.2171v2.2225zm43.656 0.52916q-6.2442 0-9.7896-2.7517-3.5454-2.7517-3.5454-9.2075v-20.532q0-2.3283-1.3229-2.9633-1.27-0.635-3.0163-0.635h-0.68791v-2.2225h15.399v2.2225h-0.68792q-1.7992 0-3.0692 0.68792-1.27 0.635-1.27 3.1221v20.638q0 4.6038 2.4871 6.5617 2.4871 1.905 6.35 1.905 4.5508 0 6.7204-2.3283 2.1696-2.3283 2.1696-5.9267v-21.061q0-2.3283-1.3229-2.9633-1.27-0.635-3.0163-0.635h-0.68791v-2.2225h13.282v2.2225h-0.68792q-1.7992 0-3.0692 0.68792-1.27 0.635-1.27 3.1221v20.955q0 5.2917-3.3338 8.3079t-9.6308 3.0162zm20.796-0.52916v-2.2225h0.68792q1.7462 0 3.0162-0.58208 1.3229-0.635 1.3229-2.9633v-26.194q0-2.3283-1.3229-2.9633-1.27-0.635-3.0162-0.635h-0.68792v-2.2225h14.235q13.6 0 13.6 10.213 0 2.8046-1.1642 4.7625-1.1642 1.905-2.9633 3.0692-1.7462 1.1642-3.6512 1.7992l7.2496 11.483q1.3758 2.1167 2.6458 3.175t2.9104 1.0583h0.15875v2.2225h-0.74083q-3.2808 0-5.1329-0.31751-1.7992-0.37041-2.9104-1.3758-1.1112-1.0583-2.3283-3.0692l-7.1438-11.906h-4.3921v10.901q0 2.3283 1.27 2.9633 1.3229 0.58208 3.0692 0.58208h0.68791v2.2225zm14.076-19.156q4.6567 0 6.35-2.0638 1.7462-2.0638 1.7462-6.1912 0-4.2333-1.8521-6.0325-1.8521-1.7992-6.35-1.7992h-3.5983v16.087zm25.506 19.156v-2.2225h1.2171q1.7462 0 3.0162-0.58208 1.3229-0.635 1.3229-2.9633v-29.369h-5.08q-2.3283 0-3.2279 1.3229-0.89958 1.27-1.1112 3.0163l-0.26458 2.2754h-2.7517l0.26458-9.2604h29.792l0.26458 9.2604h-2.7517l-0.26458-2.2754q-0.21167-1.7462-1.1112-3.0163-0.89959-1.3229-3.2808-1.3229h-5.1329v29.104q0 2.4871 1.27 3.175 1.27 0.635 3.0692 0.635h1.2171v2.2225zm26.511 0v-2.2225h0.68792q1.7992 0 3.0692-0.635 1.27-0.68791 1.27-3.175v-25.718q0-2.4871-1.27-3.1221-1.27-0.68792-3.0692-0.68792h-0.68792v-2.2225h15.399v2.2225h-0.68792q-1.7462 0-3.0692 0.635-1.27 0.635-1.27 2.9633v29.316h10.425q1.5875 0 2.54-0.68792 1.0054-0.74083 1.4817-1.8521t0.635-2.2225l0.52917-3.9688h2.7517l-0.37042 11.377zm32.967 0v-2.2225h0.68791q1.7462 0 3.0163-0.58208 1.3229-0.635 1.3229-2.9633v-25.982q0-2.4871-1.27-3.1221-1.27-0.68792-3.0692-0.68792h-0.68791v-2.2225h26.67l0.26459 9.2604h-2.7517l-0.26459-2.2754q-0.21166-1.7462-1.27-3.0163-1.0054-1.3229-3.3867-1.3229h-8.89v14.076h12.753v2.5929h-12.753v15.822h10.213q2.4871 0 3.5983-1.27 1.1642-1.3229 1.4288-3.0692l0.37042-2.2754h2.7517l-0.37041 9.2604zm46.725 0v-2.2225h0.68792q1.7462 0 3.0162-0.58208 1.3229-0.635 1.3229-2.9633v-26.194q0-2.3283-1.3229-2.9633-1.27-0.635-3.0162-0.635h-0.68792v-2.2225h14.235q13.6 0 13.6 10.213 0 2.8046-1.1642 4.7625-1.1642 1.905-2.9633 3.0692-1.7463 1.1642-3.6513 1.7992l7.2496 11.483q1.3758 2.1167 2.6458 3.175 1.27 1.0583 2.9104 1.0583h0.15875v2.2225h-0.74083q-3.2808 0-5.1329-0.31751-1.7992-0.37041-2.9104-1.3758-1.1112-1.0583-2.3283-3.0692l-7.1438-11.906h-4.3921v10.901q0 2.3283 1.27 2.9633 1.3229 0.58208 3.0692 0.58208h0.68791v2.2225zm14.076-19.156q4.6567 0 6.35-2.0638 1.7462-2.0638 1.7462-6.1912 0-4.2333-1.8521-6.0325-1.8521-1.7992-6.35-1.7992h-3.5983v16.087zm33.814 19.685q-5.715 0-8.9958-3.6512-3.2808-3.6512-3.2808-11.113 0-7.4083 3.1221-11.007 3.175-3.6512 9.3133-3.6512 5.715 0 8.9958 3.6512 3.2808 3.5983 3.2808 11.007 0 7.4613-3.175 11.113-3.1221 3.6512-9.2604 3.6512zm0.10583-2.7517q3.9688 0 5.5563-3.0162 1.6404-3.0692 1.6404-8.9958t-1.6404-8.89q-1.6404-2.9633-5.6092-2.9633-3.9688 0-5.6092 2.9633-1.5875 2.9633-1.5875 8.89t1.6404 8.9958q1.6404 3.0162 5.6092 3.0162zm34.025 2.7517q-3.0692 0-5.0271-1.27-1.905-1.3229-3.0692-3.3867h-0.3175l-0.9525 4.1275h-8.4667v-2.2225h0.42333q1.7992 0 3.0692-0.635 1.27-0.68791 1.27-3.175v-28.363q0-2.3283-1.3229-2.9633-1.27-0.635-3.0162-0.635h-0.42333v-2.2225h9.7367v9.7367q0 0.89958-0.0529 2.3283 0 1.3758-0.0529 2.6988-0.0529 1.27-0.10584 1.8521h0.21167q1.2171-2.4342 3.1221-3.8629 1.905-1.4288 4.9742-1.4288 5.2388 0 7.9904 3.5454 2.8046 3.4925 2.8046 11.112 0 7.6729-2.8046 11.218-2.7517 3.5454-7.9904 3.5454zm-0.84666-3.3867q3.4925 0 4.9742-2.9104 1.5346-2.9633 1.5346-8.5196 0-5.6621-1.5346-8.4138-1.4817-2.8046-5.0271-2.8046-4.1275 0-5.6621 2.8046-1.5346 2.7517-1.5346 8.4667 0 5.5033 1.5346 8.4667 1.5346 2.9104 5.715 2.9104zm29.739 3.3867q-5.715 0-8.9958-3.6512-3.2808-3.6512-3.2808-11.113 0-7.4083 3.1221-11.007 3.175-3.6512 9.3133-3.6512 5.715 0 8.9958 3.6512 3.2808 3.5983 3.2808 11.007 0 7.4613-3.175 11.113-3.1221 3.6512-9.2604 3.6512zm0.10584-2.7517q3.9688 0 5.5562-3.0162 1.6404-3.0692 1.6404-8.9958t-1.6404-8.89q-1.6404-2.9633-5.6092-2.9633t-5.6092 2.9633q-1.5875 2.9633-1.5875 8.89t1.6404 8.9958q1.6404 3.0162 5.6092 3.0162zm27.94 2.7517q-4.0217 0-5.8738-1.7992-1.7992-1.8521-1.7992-6.4029v-17.674h-4.0217v-2.1167q0.9525 0 2.1167-0.37042 1.1642-0.42333 2.0108-1.3229 0.89958-0.9525 1.4817-2.3283 0.58208-1.3758 0.9525-3.3867h2.4342v6.5088h6.9321v3.0163h-6.9321v17.833q0 2.6988 1.1112 3.9688t2.9104 1.27q0.95251 0 1.7463-0.10584 0.79375-0.10583 1.6404-0.26458v2.3283q-0.68791 0.31751-2.0638 0.58209-1.3758 0.26458-2.6458 0.26458zm14.446-34.184q-1.27 0-2.1696-0.74083-0.84667-0.74083-0.84667-2.54 0-1.8521 0.84667-2.54 0.89959-0.74084 2.1696-0.74084 1.2171 0 2.1167 0.74084 0.89959 0.68792 0.89959 2.54 0 1.7992-0.89959 2.54-0.89958 0.74083-2.1167 0.74083zm-7.3025 33.655v-2.2225h0.68792q1.7462 0 3.0162-0.58208 1.3229-0.635 1.3229-2.9633v-16.775q0-2.3283-1.3229-2.9633-1.27-0.635-3.0162-0.635h-0.15875v-2.2225h9.4721v22.331q0 2.4871 1.27 3.175 1.27 0.635 3.0692 0.635h0.68791v2.2225zm30.692 0.52916q-3.4925 0-6.2442-1.4817-2.6988-1.4817-4.2862-4.6567-1.5346-3.2279-1.5346-8.4138 0-5.6621 1.5346-8.89 1.5875-3.2808 4.2333-4.6038 2.6988-1.3758 6.0325-1.3758 2.2225 0 4.3392 0.58208 2.1167 0.58209 3.4925 1.7992 1.3758 1.1642 1.3758 3.0162 0 1.7992-1.2171 2.5929-1.1642 0.74083-3.4925 0.74083 0-2.4871-0.9525-4.2862-0.89959-1.7992-3.5454-1.7992-2.0108 0-3.5454 1.0583-1.4817 1.0583-2.3283 3.7042-0.79375 2.6458-0.79375 7.4083 0 5.6092 1.8521 8.4138 1.905 2.7517 6.1383 2.7517 2.4871 0 4.2862-1.0054 1.8521-1.0583 2.7517-2.6988 0.89958 0.74083 0.89958 2.0638 0 1.2171-1.0054 2.3812-1.0054 1.1642-3.0162 1.9579-1.9579 0.74083-4.9742 0.74083zm22.172 0q-3.9688 0-6.35-1.4288-2.3812-1.4288-2.3812-4.1804 0-1.4288 0.58209-2.2225 0.58208-0.79375 1.3229-1.1112 0.79375-0.3175 1.4288-0.3175 0 2.7517 1.2171 4.7625 1.27 1.9579 4.4979 1.9579 2.8046 0 4.2862-1.3229 1.5346-1.3758 1.5346-3.4925 0-1.3229-0.58209-2.1696-0.52917-0.84667-1.9579-1.6404-1.3758-0.84667-3.9688-1.9579-2.6988-1.2171-4.4979-2.3283-1.7462-1.1642-2.6458-2.6458-0.84667-1.5346-0.84667-3.81 0-3.5983 2.6988-5.5033 2.7517-1.9579 7.2496-1.9579 3.81 0 5.7679 1.4288 1.9579 1.4288 1.9579 3.4396 0 1.4288-1.0054 2.3283-0.9525 0.84666-2.8046 0.84666 0-2.6458-1.1112-4.1275t-3.4396-1.4817q-2.6988 0-3.8629 1.2171-1.1642 1.1642-1.1642 3.0162 0 2.0108 1.4817 3.1221 1.5346 1.0583 5.08 2.4871 2.8046 1.1642 4.5508 2.3283 1.7462 1.1642 2.54 2.6988 0.84667 1.5346 0.84667 3.7571 0 4.1275-2.8575 6.2442-2.8575 2.0638-7.5671 2.0638z" stroke="#000" stroke-linecap="round" stroke-linejoin="round" stroke-width=".13229" style="paint-order:markers stroke fill" aria-label="TURTLE Robotics"/><g transform="skewX(-10.877)" stroke-width="0" aria-label="QUAD V2"><path d="m460.47 202.66v-19.262q0-8.6254 8.6254-8.6254h12.118q8.6254 0 8.6254 8.6254v19.315q0 7.3025-6.2971 8.255l3.4925 6.8792-0.79375 1.3758h-5.5562l-4.0217-7.9375h-7.5671q-8.6254 0-8.6254-8.6254zm6.4558 0.47625q0 2.2754 2.3283 2.2754h11.8q2.3283 0 2.3283-2.2754v-20.214q0-2.2754-2.3283-2.2754h-11.8q-2.3283 0-2.3283 2.2754zm31.062-0.47625v-27.887h6.4558v28.363q0 2.2754 2.3283 2.2754h10.742q2.3283 0 2.3283-2.2754v-28.363h6.4558v27.887q0 8.6254-8.6254 8.6254h-11.06q-8.6254 0-8.6254-8.6254zm33.496 7.3554 11.271-35.243h10.054l11.218 35.243-0.79375 1.27h-5.4504l-2.4871-8.0433h-15.081l-2.54 8.0433h-5.3446zm10.53-12.647h11.536l-5.2917-16.722h-1.0054zm27.517 13.917v-36.513h14.023q14.288 0 14.288 14.34v7.8317q0 14.34-14.288 14.34zm6.4558-5.8738h7.9375q7.4612 0 7.4612-7.4612v-9.8425q0-7.4612-7.4612-7.4612h-7.9375z"/><path d="m614.07 178.39 0.79022-1.1853h5.2352l8.4455 28.596h0.93839l8.4455-28.596h5.2846l0.74083 1.1853-10.075 32.893h-9.779zm33.584 32.893v-10.816q0-6.5687 5.7785-7.7541l9.4827-1.9262q1.6792-0.34572 1.6792-2.2225v-3.7536q0-2.1237-2.1237-2.1237h-13.829v-3.2103l2.914-2.2719h11.063q8.0504 0 8.0504 8.0504v3.1609q0 6.5687-5.7785 7.754l-9.4827 1.9262q-1.6792 0.34572-1.6792 2.2225v5.4822h16.94v5.4822z"/></g></g></g></svg>
