<?xml version="1.0" encoding="UTF-8"?>
<svg width="55" height="55" version="1.1" viewBox="0 0 512 512" xml:space="preserve" xmlns="http://www.w3.org/2000/svg"><path d="m131.78 0.047822c-23.427-0.4249-41.971 1.9121-48.241 8.1825-3.55 3.55 1.6872 11.384 11.727 18.955 31.782 23.969 109.08 54.245 120.64 60.721 4.9879 2.7944 10.716 5.9171 16.897 9.0308l-5.5821-16.34-0.91361-10.572 10.868-38.267 19.863-3.1424 22.158 33.031 2.3995 10.341-0.35641 23.904 38.322 6.0691 7.048-22.846 3.1074-5.1555c-5.285-23.418-39.318-42.509-74.294-54.165-31.978-10.656-84.593-19.04-123.64-19.749zm334.61 19.302c-24.756-0.20555-60.537 16.09-72.252 28.212-7.4053 7.6644-9.7199 19.157-13.534 26.354-0.0136 0.02331-0.0272 0.04663-0.0398 0.06994-3e-3 0.0068-7e-3 0.0136-0.01 0.0204v5e-3l-0.75799 20.321-4.1414 9.7792-14.337 19.131 27.434 27.434 19.131-14.337 9.7792-4.1414 20.321-0.75799h5e-3c7e-3 -4e-3 0.0136-7e-3 0.0204-0.01 0.0243-0.0126 0.0466-0.0272 0.0699-0.0398 7.1969-3.8136 18.69-6.1283 26.354-13.534 15.776-15.243 39.749-74.027 21.741-92.035-4.5019-4.5019-11.532-6.4022-19.784-6.4707zm-28.357 162.93-5.1555 3.1073-22.846 7.048 6.0691 38.322 23.904-0.35641 10.341 2.3995 33.031 22.158-3.1424 19.863-38.267 10.868-10.572-0.91362-16.34-5.5821c3.1138 6.1813 6.2364 11.909 9.0308 16.897 6.4749 11.558 36.752 88.856 60.721 120.64 7.571 10.04 15.406 15.276 18.955 11.727 6.2703-6.2703 8.6074-24.814 8.1825-48.241-0.70816-39.047-9.0917-91.662-19.749-123.64-11.656-34.977-30.747-69.01-54.165-74.294zm-341.9 42.539s-99.463 15.11-96.056 61.453c2.7219 37.018 57.19 49.682 96.137 39.27l-4.3673-8.569 24.567-31.284 9.091-5.4767 22.846-7.048-6.0691-38.322-23.904 0.35641-10.341-2.3995-11.897-7.9817zm142.69 138.82-7.048 22.846-5.4767 9.091-31.284 24.567-8.569-4.3673c-10.411 38.946 2.2521 93.414 39.27 96.137 46.344 3.4076 61.453-96.056 61.453-96.056v-5e-3l-7.9817-11.897-2.3995-10.341 0.35641-23.904z" fill="#fff" stroke-width="9.7141"/><path d="m391.16 311.62 19.55 13.764 6.956 8.0168 13.698 37.343-14.22 14.22-37.343-13.698-8.0168-6.956-13.764-19.55-34.573 17.617 7.7264 22.626 0.91555 10.574-10.868 38.263-19.862 3.1459-22.16-33.032-2.397-10.34 0.35641-23.906-38.325-6.0702-7.0486 22.847-5.4751 9.0928-31.282 24.568-17.918-9.1296 1.4882-39.748 4.1383-9.7743 14.34-19.131-27.438-27.438-19.131 14.34-9.7743 4.1383-39.748 1.4882-9.1296-17.918 24.568-31.282 9.0928-5.475 22.847-7.0486-6.0702-38.325-23.906 0.35641-10.34-2.397-33.032-22.16 3.1459-19.862 38.263-10.868 10.574 0.91555 22.626 7.7264 17.617-34.573-19.55-13.764-6.956-8.0168-13.698-37.343 14.22-14.219 37.343 13.698 8.0168 6.956 13.764 19.55 34.573-17.617-7.7264-22.626-0.91555-10.574 10.868-38.263 19.862-3.1459 22.16 33.032 2.397 10.34-0.35641 23.906 38.325 6.0702 7.0486-22.847 5.475-9.0928 31.282-24.568 17.918 9.1296-1.4882 39.748-4.1383 9.7743-14.34 19.131 27.438 27.438 19.131-14.34 9.7743-4.1383 39.748-1.4882 9.1296 17.918-24.568 31.282-9.0928 5.475-22.847 7.0486 6.0702 38.325 23.906-0.35641 10.34 2.397 33.032 22.16-3.1459 19.862-38.263 10.868-10.574-0.91556-22.626-7.7264z" fill="#ff0" stroke="#000" stroke-width="5.1404"/><circle transform="rotate(45)" cx="362.04" cy="-32.807" r="53.769" fill="#fff" stroke-width="9.7141"/></svg>
